<?xml version="1.0" encoding="utf-8"?>
<!-- Generator: Adobe Illustrator 16.0.4, SVG Export Plug-In . SVG Version: 6.00 Build 0)  -->
<!DOCTYPE svg PUBLIC "-//W3C//DTD SVG 1.1//EN" "http://www.w3.org/Graphics/SVG/1.1/DTD/svg11.dtd">
<svg version="1.1" id="Layer_1" xmlns="http://www.w3.org/2000/svg" xmlns:xlink="http://www.w3.org/1999/xlink" x="0px" y="0px"
	 width="1000px" height="1000px" viewBox="0 0 1000 1000" enable-background="new 0 0 1000 1000" xml:space="preserve">
<g>
	<rect x="1" y="1" fill="#1E88E5" width="999" height="999"/>
	<path opacity="0.2" d="M371.389,1000c0.653-0.688,1.305-1.377,1.939-2.074c3.66-3.272,7.102-6.674,10.312-10.197
		c3.662-3.275,7.104-6.676,10.316-10.202c3.657-3.271,7.098-6.674,10.308-10.199c3.663-3.273,7.103-6.673,10.313-10.198
		c3.66-3.271,7.104-6.676,10.313-10.197c3.657-3.272,7.099-6.674,10.307-10.195c3.658-3.273,7.102-6.673,10.309-10.197
		c3.662-3.271,7.105-6.678,10.317-10.206c3.658-3.271,7.104-6.672,10.313-10.2c3.659-3.271,7.101-6.671,10.308-10.193
		c3.659-3.27,7.096-6.669,10.306-10.193c3.663-3.273,7.11-6.678,10.323-10.21c3.658-3.27,7.097-6.669,10.306-10.192
		c3.659-3.271,7.103-6.674,10.312-10.199c3.661-3.276,7.102-6.668,10.313-10.197c3.658-3.274,7.099-6.672,10.311-10.2
		c3.66-3.275,7.103-6.673,10.313-10.201c3.659-3.274,7.098-6.668,10.306-10.193c3.662-3.271,7.104-6.675,10.316-10.205
		c3.66-3.27,7.101-6.67,10.309-10.192c3.662-3.272,7.103-6.674,10.312-10.197c3.662-3.276,7.108-6.682,10.319-10.207
		c3.657-3.271,7.096-6.668,10.304-10.191c3.658-3.274,7.103-6.675,10.31-10.198c3.663-3.272,7.105-6.676,10.318-10.204
		c3.659-3.273,7.101-6.673,10.312-10.201c3.657-3.27,7.097-6.668,10.303-10.191c3.663-3.272,7.106-6.674,10.317-10.202
		c3.66-3.273,7.101-6.67,10.309-10.196c3.662-3.271,7.104-6.675,10.313-10.2c3.661-3.271,7.104-6.67,10.31-10.197
		c3.663-3.275,7.105-6.676,10.315-10.201c3.659-3.271,7.098-6.67,10.306-10.191c3.66-3.276,7.104-6.678,10.313-10.201
		c3.663-3.275,7.104-6.675,10.315-10.203c12.808-11.452,87.92-84.79,99.496-99.367c61.16-77.019-122.186-138.128-281.611-184.812
		c-140.864-41.248-284.968-19.421-345.844,47.445c-3.663,3.276-7.109,6.677-10.319,10.204c-3.658,3.272-7.097,6.671-10.303,10.192
		c-3.661,3.276-7.104,6.677-10.318,10.203c-3.657,3.275-7.098,6.67-10.309,10.198c-3.659,3.271-7.098,6.669-10.308,10.196
		c-3.664,3.274-7.109,6.681-10.324,10.209c-3.656,3.269-7.095,6.667-10.3,10.188c-3.658,3.272-7.101,6.673-10.311,10.197
		c-3.663,3.272-7.106,6.678-10.319,10.206c-3.657,3.27-7.101,6.672-10.308,10.196c-3.658,3.271-7.097,6.671-10.305,10.192
		c-3.664,3.271-7.112,6.681-10.325,10.209c-3.656,3.271-7.096,6.669-10.303,10.191c-3.662,3.274-7.103,6.673-10.314,10.206
		c-3.661,3.271-7.102,6.669-10.31,10.194c-3.661,3.273-7.104,6.672-10.314,10.199c-3.657,3.271-7.1,6.671-10.311,10.196
		c-3.661,3.276-7.101,6.672-10.311,10.198c-3.662,3.276-7.104,6.677-10.316,10.205c-3.3,2.951-6.413,6.013-9.35,9.172V1000H371.389z
		"/>
	<rect x="151.75" y="239.488" fill="#1E88E5" width="773.906" height="200.22"/>
	<path fill="#FFFFFF" d="M859.51,508.811c-23.809,71.299-207.096,125.172-409.385,120.318
		c-202.287-4.852-346.968-66.589-323.165-137.892c23.816-71.3,207.097-125.17,409.387-120.317
		C738.63,375.771,883.319,437.508,859.51,508.811z"/>
	<path opacity="0.19" fill="#C6C6C6" d="M847.914,508.531c-23.058,69.044-200.54,121.211-396.425,116.511
		c-195.882-4.696-335.98-64.48-312.932-133.527c23.057-69.042,200.54-121.207,396.424-116.508
		C730.866,379.705,870.969,439.487,847.914,508.531z"/>
	<path opacity="0.09" d="M787.093,507.073c-19.101,57.204-166.155,100.422-328.442,96.53
		c-162.29-3.892-278.371-53.42-259.269-110.625c19.103-57.207,166.149-100.426,328.439-96.533
		C690.114,400.339,806.197,449.869,787.093,507.073z"/>
	<path fill="#DDB647" d="M740.464,382.027c-5.462-3.547-13.079-10.613-18.637-14.028c-6.543-4.021-12.24-10.154-19.259-13.34
		c-19.872-9.023-27.119-25.813-41.381-37.718l-141.2,4.296l-46.776,0.652l-50.791,2.088l-48.473,3.757l-42.937,3.962l-27.84,2.935
		l-15.094,1.028l-11.783-2.813l-14.157-2.899l-5.654,2.962l-0.263,7.121l-0.233,6.331l-0.466,12.661l-3.068,83.086l-0.641,17.411
		l-0.642,17.411l4.897,17.612c0,0,43.759,60.162,60.046,78.658c2.47,2.806,6.372,8.925,13.756,9.575
		c6.097,0.535,411.581-29.818,411.581-29.818l6.39-136.148l0.817-22.155"/>
	<path fill="#FFE082" d="M742.99,548.167c-0.29,7.866-6.905,14.009-14.771,13.719l-387.443,20.567
		c-7.867-0.29-14.008-6.903-13.718-14.77l9.913-139.886c0.292-7.868,6.904-14.009,14.773-13.718l383.163-33.403
		c7.865,0.289,14.009,6.901,13.717,14.768L742.99,548.167z"/>
	<path fill="#FFE082" d="M323.01,548.518c-1.435,12.032,0.039,25.754-8.614,18.697l-55.987-71.794
		c-6.866-12.536-5.279-28.769-4.986-36.635l3.853-104.453c0.291-7.867-0.501-29.335,13.189-13.776l54.462,70.155
		c5.862,7.546,5.737,5.561,7.386,14.538L323.01,548.518z"/>
	<g>
		<path fill="#DDB647" d="M395.821,519.045c-4.081,2.919-10.203,4.693-15.79,5.124l-29.224,2.255l4.873-60.275l24.496-1.889
			c5.157-0.398,10.709-0.393,14.866,1.022c4.156,1.416,8.273,5.438,7.708,12.427c-0.565,6.989-5.423,12.139-9.418,14.009
			c6.722,1.391,10.767,6.289,10.202,13.276C402.969,511.982,399.901,516.125,395.821,519.045z M382.763,500.954
			c-1.219-0.775-2.063-0.883-4.212-0.717l-6.448,0.498l-0.777,9.609l6.448-0.498c2.148-0.166,3.029-0.495,4.389-1.467
			c1.36-0.974,1.895-2.316,2.016-3.802C384.305,503.004,383.981,501.728,382.763,500.954z M381.963,479.139
			c-1.218-0.775-2.078-0.708-4.226-0.543l-3.869,0.299l-0.707,8.736l3.869-0.298c2.148-0.166,3.015-0.32,4.374-1.293
			c1.36-0.973,1.875-2.054,1.996-3.54C383.527,480.928,383.183,479.913,381.963,479.139z"/>
		<path fill="#DDB647" d="M463.339,492.133c-0.777,9.609-3.384,15.453-8.035,20.153c-4.651,4.698-11.745,7.938-21.201,8.667
			c-9.454,0.729-16.112-1.448-20.056-5.484c-3.944-4.037-5.634-9.549-4.857-19.158l2.789-34.505l19.512-1.506l-2.86,35.378
			c-0.289,3.582,0.263,5.188,1.447,6.4c1.183,1.21,2.832,1.951,5.41,1.753c2.579-0.199,4.369-1.205,5.764-2.615
			c1.396-1.41,2.139-3.203,2.421-6.697l2.86-35.379l19.596-1.512L463.339,492.133z"/>
		<path fill="#DDB647" d="M516.112,469.05l-14.011,1.081l-3.63,44.9l-19.425,1.499l3.63-44.9l-13.925,1.074l1.243-15.375
			l47.36-3.654L516.112,469.05z"/>
		<path fill="#DDB647" d="M566.738,465.144l-14.011,1.081l-3.631,44.901l-19.425,1.499l3.629-44.901l-13.923,1.074l1.242-15.375
			l47.36-3.654L566.738,465.144z"/>
		<path fill="#DDB647" d="M610.381,506.398l-42.978,3.315l4.873-60.275l42.118-3.25l-1.257,15.548l-22.778,1.757l-0.529,6.552
			l21.487-1.657l-1.25,15.461l-21.487,1.657l-0.565,6.989l23.637-1.823L610.381,506.398z"/>
		<path fill="#DDB647" d="M670.977,501.723l-22.348,1.725l-7.831-19.362l-2.492,0.192l-1.624,20.091l-19.427,1.499l4.873-60.275
			l25.786-1.989c7.306-0.563,12.787,0.315,16.838,3.042c4.051,2.725,6.636,7.734,6.105,14.286
			c-0.988,12.23-8.648,17.163-11.354,18.934L670.977,501.723z M649.373,459.377c-0.804-0.633-2.058-0.971-4.206-0.805l-4.899,0.378
			l-0.849,10.483l4.9-0.378c2.148-0.166,3.559-0.708,4.382-1.379c1.002-0.772,2.275-1.738,2.488-4.358
			C651.401,460.696,650.183,459.921,649.373,459.377z"/>
		<path fill="#DDB647" d="M731.718,437.138l-23.595,38.28l-1.907,23.587l-19.425,1.499l1.906-23.587l-17.577-35.104l21.488-1.658
			l7.122,19.677l10.499-21.036L731.718,437.138z"/>
	</g>
</g>
</svg>
